<?xml version="1.0" encoding="UTF-8" standalone="no"?>
<!-- Svg Vector Icons : http://www.onlinewebfonts.com/icon -->

<svg
   xmlns:dc="http://purl.org/dc/elements/1.1/"
   xmlns:cc="http://creativecommons.org/ns#"
   xmlns:rdf="http://www.w3.org/1999/02/22-rdf-syntax-ns#"
   xmlns:svg="http://www.w3.org/2000/svg"
   xmlns="http://www.w3.org/2000/svg"
   xmlns:sodipodi="http://sodipodi.sourceforge.net/DTD/sodipodi-0.dtd"
   xmlns:inkscape="http://www.inkscape.org/namespaces/inkscape"
   version="1.1"
   x="0px"
   y="0px"
   viewBox="0 0 1000 1000"
   enable-background="new 0 0 1000 1000"
   xml:space="preserve"
   id="svg2"
   inkscape:version="0.91 r13725"
   sodipodi:docname="arrow-right.svg"><defs
     id="defs14" /><sodipodi:namedview
     pagecolor="#ffffff"
     bordercolor="#666666"
     borderopacity="1"
     objecttolerance="10"
     gridtolerance="10"
     guidetolerance="10"
     inkscape:pageopacity="0"
     inkscape:pageshadow="2"
     inkscape:window-width="852"
     inkscape:window-height="480"
     id="namedview12"
     showgrid="false"
     inkscape:zoom="0.236"
     inkscape:cx="500"
     inkscape:cy="500"
     inkscape:window-x="0"
     inkscape:window-y="0"
     inkscape:window-maximized="0"
     inkscape:current-layer="svg2" /><metadata
     id="metadata4"> Svg Vector Icons : http://www.onlinewebfonts.com/icon <rdf:RDF><cc:Work
     rdf:about=""><dc:format>image/svg+xml</dc:format><dc:type
       rdf:resource="http://purl.org/dc/dcmitype/StillImage" /><dc:title></dc:title></cc:Work></rdf:RDF></metadata><g
     id="g6"
     style="fill:#ffffff"
     transform="matrix(-1,0,0,1,1000,0)"><path
       d="M 500,10 C 229.4,10 10,229.4 10,500 10,770.6 229.4,990 500,990 770.6,990 990,770.6 990,500 990,229.4 770.6,10 500,10 Z m 0,925.6 C 259.4,935.6 64.4,740.6 64.4,500 64.4,259.4 259.4,64.4 500,64.4 c 240.6,0 435.6,195 435.6,435.6 0,240.6 -195,435.6 -435.6,435.6 z"
       id="path8"
       style="fill:#ffffff"
       inkscape:connector-curvature="0" /><path
       d="M 628.3,204.8 346,487.2 c -7.1,7.1 -7.1,18.6 0,25.7 L 628.3,795.2 654,769.5 384.5,500 654,230.5 628.3,204.8 Z"
       id="path10"
       style="fill:#ffffff"
       inkscape:connector-curvature="0" /></g></svg>